<svg width="382" height="53" viewBox="0 0 382 53" fill="none" xmlns="http://www.w3.org/2000/svg">
<path d="M47.3874 12.8458H45.8647V10.7646H53.1787C56.0549 10.7646 58.1372 12.3516 58.1372 15.1221C58.1734 15.8742 57.9911 16.6206 57.6124 17.2715C57.2337 17.9223 56.6747 18.4498 56.0028 18.7902C56.8637 19.071 57.6069 19.6295 58.1157 20.3782C58.6245 21.1269 58.8701 22.0233 58.8139 22.9266C58.8139 26.1525 56.3412 27.7914 53.3219 27.7914H48.9882C47.895 27.7914 47.4395 27.3361 47.4395 26.2435L47.3874 12.8458ZM53.1527 17.9448C53.4909 17.9552 53.8275 17.894 54.1403 17.765C54.4531 17.636 54.735 17.4422 54.9674 17.1964C55.1998 16.9506 55.3775 16.6583 55.4886 16.3389C55.5998 16.0195 55.642 15.6802 55.6124 15.3433C55.6399 15.0066 55.5939 14.668 55.4774 14.3509C55.361 14.0338 55.1768 13.7459 54.9378 13.507C54.6989 13.2682 54.4108 13.0842 54.0935 12.9677C53.7763 12.8513 53.4375 12.8053 53.1007 12.8328H49.769V17.9318L53.1527 17.9448ZM50.3416 25.7492H53.387C53.775 25.7787 54.1649 25.7237 54.5296 25.5882C54.8944 25.4526 55.2255 25.2397 55.5 24.964C55.7746 24.6884 55.9861 24.3565 56.1201 23.9913C56.2541 23.6262 56.3073 23.2363 56.2761 22.8486C56.3025 22.4608 56.2462 22.0718 56.1108 21.7074C55.9755 21.343 55.7643 21.0115 55.4911 20.7348C55.218 20.4581 54.8892 20.2425 54.5264 20.1024C54.1637 19.9623 53.7753 19.9007 53.387 19.9219H49.769V25.2159C49.7607 25.288 49.7688 25.361 49.7926 25.4295C49.8165 25.4979 49.8556 25.5602 49.9069 25.6114C49.9582 25.6627 50.0204 25.7018 50.089 25.7256C50.1575 25.7495 50.2305 25.7575 50.3026 25.7492" fill="white"/>
<path d="M68.1325 20.1948H68.6661V20.0778C68.6661 17.9185 67.8592 17.1511 65.9461 17.1511C65.3735 17.1511 63.9419 17.2942 63.9419 18.0876V18.79H61.7425V17.5803C61.7425 15.5772 64.7878 15.291 65.9721 15.291C69.9415 15.291 71.0086 17.3592 71.0086 20.0778V25.2807C71.0003 25.3528 71.0084 25.4258 71.0323 25.4943C71.0561 25.5628 71.0952 25.625 71.1465 25.6763C71.1978 25.7275 71.26 25.7666 71.3286 25.7904C71.3971 25.8143 71.4701 25.8224 71.5422 25.814H72.5313V27.8172H70.3319C69.2517 27.8172 68.8092 27.2839 68.8092 26.4124C68.7922 26.1699 68.7922 25.9265 68.8092 25.684C68.4681 26.4269 67.9163 27.0533 67.2223 27.4857C66.5283 27.9181 65.7225 28.1374 64.905 28.1164C64.3834 28.161 63.8583 28.0981 63.362 27.9317C62.8657 27.7654 62.4089 27.499 62.0197 27.149C61.6306 26.7991 61.3174 26.3731 61.0996 25.8974C60.8818 25.4216 60.764 24.9063 60.7534 24.3832C60.7534 20.481 66.0762 20.1948 68.1325 20.1948ZM65.3865 26.2173C67.3646 26.2173 68.6531 24.1361 68.6531 22.315V21.9508H68.0414C66.2715 21.9508 63.083 22.0549 63.083 24.3052C63.0933 24.589 63.1628 24.8675 63.2869 25.123C63.411 25.3785 63.5871 25.6053 63.8039 25.7889C64.0206 25.9725 64.2733 26.1089 64.5458 26.1894C64.8184 26.2699 65.1047 26.2927 65.3865 26.2563" fill="white"/>
<path d="M75.0823 18.1137C75.0906 18.0416 75.0825 17.9686 75.0586 17.9001C75.0347 17.8316 74.9957 17.7694 74.9444 17.7181C74.8931 17.6669 74.8308 17.6278 74.7623 17.604C74.6938 17.5801 74.6207 17.572 74.5487 17.5804H73.5596V15.5772H75.798C76.8261 15.5772 77.3467 16.0325 77.3467 16.878V17.3332C77.364 17.567 77.364 17.8018 77.3467 18.0356C77.7621 17.1771 78.4165 16.4566 79.2313 15.9606C80.0462 15.4645 80.987 15.214 81.9407 15.239C84.8429 15.239 86.1573 16.7999 86.1573 19.9217V25.2287C86.149 25.3008 86.1571 25.3738 86.181 25.4423C86.2048 25.5108 86.2439 25.573 86.2952 25.6243C86.3465 25.6755 86.4088 25.7146 86.4773 25.7384C86.5458 25.7623 86.6188 25.7704 86.6909 25.762H87.68V27.7652H85.3505C84.2703 27.7652 83.8018 27.3099 83.8018 26.2173V20.455C83.8018 18.738 83.4634 17.3852 81.5113 17.3852C80.6141 17.3613 79.7361 17.647 79.025 18.1942C78.3139 18.7415 77.8131 19.5169 77.607 20.39C77.4427 20.9202 77.3679 21.4741 77.3858 22.0289V27.7652H75.0432L75.0823 18.1137Z" fill="white"/>
<path d="M94.6162 15.2909C95.3573 15.2338 96.0999 15.3791 96.7647 15.7113C97.4295 16.0436 97.9914 16.5502 98.3903 17.177C98.3725 16.8998 98.3725 16.6217 98.3903 16.3445V13.2747C98.3986 13.2027 98.3906 13.1297 98.3667 13.0612C98.3428 12.9927 98.3038 12.9305 98.2525 12.8792C98.2012 12.8279 98.1389 12.7889 98.0703 12.765C98.0018 12.7412 97.9288 12.7331 97.8568 12.7414H96.8677V10.7383H99.2232C100.316 10.7383 100.785 11.1935 100.785 12.2862V25.2936C100.774 25.365 100.78 25.4378 100.803 25.5064C100.825 25.575 100.863 25.6375 100.913 25.6891C100.963 25.7408 101.025 25.7801 101.093 25.804C101.161 25.8279 101.234 25.8357 101.305 25.8269H102.308V27.8301H100.056C98.989 27.8301 98.5465 27.3488 98.5465 26.5293C98.5465 26.1651 98.5465 25.892 98.5465 25.892C98.1544 26.6012 97.5706 27.186 96.8618 27.5793C96.153 27.9726 95.3478 28.1587 94.5381 28.1162C91.2195 28.1162 89.1372 25.5147 89.1372 21.7036C89.1372 17.8924 91.4407 15.3039 94.6813 15.3039M98.5855 21.6906C98.5855 19.5053 97.4403 17.3331 95.0977 17.3331C93.1847 17.3331 91.5839 18.933 91.5839 21.7036C91.5839 24.4741 93.0154 26.0871 95.0456 26.0871C96.8676 26.0871 98.5855 24.7863 98.5855 21.6906Z" fill="white"/>
<path d="M109.843 15.2778C113.279 15.2778 115.114 17.8792 115.114 21.014C115.114 21.3392 115.049 21.9896 115.049 21.9896H106.108C106.111 22.5361 106.223 23.0764 106.438 23.5789C106.653 24.0815 106.966 24.5363 107.358 24.9166C107.751 25.2969 108.215 25.5951 108.725 25.7938C109.234 25.9926 109.778 26.0878 110.325 26.0739C111.649 26.0345 112.917 25.5276 113.903 24.6431L114.918 26.3211C113.616 27.466 111.942 28.0992 110.207 28.1031C109.352 28.139 108.498 27.9989 107.7 27.6914C106.901 27.3838 106.174 26.9155 105.564 26.3154C104.953 25.7153 104.473 24.9962 104.153 24.2029C103.832 23.4095 103.678 22.5588 103.7 21.7034C103.646 20.8687 103.766 20.0318 104.052 19.2458C104.339 18.4598 104.786 17.742 105.364 17.1378C105.943 16.5336 106.641 16.0562 107.415 15.736C108.188 15.4158 109.019 15.2598 109.856 15.2778M112.706 20.2726C112.738 19.8753 112.688 19.4756 112.558 19.0986C112.428 18.7217 112.222 18.3757 111.952 18.0824C111.682 17.7892 111.354 17.555 110.988 17.3947C110.623 17.2343 110.229 17.1513 109.83 17.1508C108.946 17.1225 108.084 17.4281 107.416 18.0067C106.748 18.5853 106.323 19.3944 106.225 20.2726H112.706Z" fill="white"/>
<path d="M118.367 18.1135C118.376 18.0415 118.367 17.9685 118.344 17.9C118.32 17.8315 118.281 17.7693 118.229 17.718C118.178 17.6667 118.116 17.6277 118.047 17.6038C117.979 17.58 117.906 17.5719 117.834 17.5802H116.832V15.5771H119.135C120.228 15.5771 120.684 16.0323 120.684 17.1249V25.2806C120.675 25.3527 120.684 25.4257 120.707 25.4942C120.731 25.5626 120.77 25.6249 120.822 25.6761C120.873 25.7274 120.935 25.7665 121.004 25.7903C121.072 25.8142 121.145 25.8222 121.217 25.8139H122.206V27.8171H119.916C118.823 27.8171 118.367 27.3618 118.367 26.2692V18.1135ZM118.367 10.7383H120.476V13.1837H118.367V10.7383Z" fill="white"/>
<path d="M124.901 18.1135C124.909 18.0415 124.901 17.9685 124.877 17.9C124.854 17.8315 124.815 17.7693 124.763 17.718C124.712 17.6667 124.65 17.6277 124.581 17.6038C124.513 17.58 124.44 17.5719 124.368 17.5802H123.378V15.5771H125.604C126.671 15.5771 127.179 16.0063 127.179 17.0079V17.7754C127.197 18.0569 127.197 18.3393 127.179 18.6208C127.397 17.7392 127.896 16.9521 128.6 16.3776C129.304 15.8031 130.175 15.472 131.083 15.434C131.295 15.423 131.508 15.423 131.721 15.434V17.7623C131.49 17.7118 131.254 17.6856 131.018 17.6843C130.206 17.7235 129.43 18.027 128.807 18.5484C128.185 19.0698 127.75 19.7804 127.569 20.572C127.368 21.2871 127.272 22.0275 127.283 22.7702V27.7781H124.94L124.901 18.1135Z" fill="white"/>
<path d="M139.737 20.1948H140.271V20.0778C140.271 17.9185 139.477 17.1511 137.564 17.1511C136.978 17.1511 135.547 17.2942 135.547 18.0876V18.79H133.347V17.5803C133.347 15.5772 136.393 15.291 137.577 15.291C141.559 15.291 142.613 17.3592 142.613 20.0778V25.2807C142.605 25.3528 142.613 25.4258 142.637 25.4943C142.661 25.5628 142.7 25.625 142.751 25.6763C142.803 25.7275 142.865 25.7666 142.933 25.7904C143.002 25.8143 143.075 25.8224 143.147 25.814H144.149V27.8172H141.937C140.857 27.8172 140.414 27.2839 140.414 26.4124C140.397 26.1699 140.397 25.9265 140.414 25.684C140.073 26.4269 139.521 27.0533 138.827 27.4857C138.133 27.9181 137.327 28.1374 136.51 28.1164C135.99 28.1515 135.467 28.0822 134.975 27.9125C134.482 27.7427 134.028 27.476 133.639 27.1281C133.251 26.7801 132.937 26.3579 132.714 25.8865C132.492 25.4151 132.367 24.9039 132.345 24.3832C132.345 20.481 137.668 20.1948 139.724 20.1948M137.017 26.2173C138.995 26.2173 140.284 24.1361 140.284 22.315V21.9508H139.672C137.915 21.9508 134.714 22.0549 134.714 24.3052C134.724 24.589 134.794 24.8675 134.918 25.123C135.042 25.3785 135.218 25.6053 135.435 25.7889C135.651 25.9725 135.904 26.1089 136.177 26.1894C136.449 26.2699 136.735 26.2927 137.017 26.2563" fill="white"/>
<path d="M146.686 18.1137C146.694 18.0416 146.686 17.9686 146.662 17.9001C146.638 17.8316 146.599 17.7694 146.548 17.7181C146.497 17.6669 146.434 17.6278 146.366 17.604C146.297 17.5801 146.224 17.572 146.152 17.5804H145.163V15.5772H147.376C148.417 15.5772 148.924 16.0325 148.924 16.878V17.3332C148.942 17.567 148.942 17.8018 148.924 18.0356C149.34 17.1771 149.994 16.4566 150.809 15.9606C151.624 15.4645 152.564 15.214 153.518 15.239C156.42 15.239 157.735 16.7999 157.735 19.9217V25.2287C157.727 25.3008 157.735 25.3738 157.758 25.4423C157.782 25.5108 157.821 25.573 157.873 25.6243C157.924 25.6755 157.986 25.7146 158.055 25.7384C158.123 25.7623 158.196 25.7704 158.268 25.762H159.258V27.7652H156.928C155.848 27.7652 155.379 27.3099 155.379 26.2173V20.455C155.379 18.738 155.041 17.3852 153.089 17.3852C152.194 17.3732 151.322 17.6634 150.614 18.2088C149.905 18.7541 149.401 19.5227 149.185 20.39C149.02 20.9202 148.945 21.4741 148.963 22.0289V27.7652H146.621L146.686 18.1137Z" fill="white"/>
<path d="M161.938 17.463H160.39V15.5769H162.029V12.208H164.294V15.5769H167.222V17.463H164.294V23.0692C164.242 23.4305 164.272 23.7989 164.382 24.147C164.492 24.4951 164.679 24.8141 164.929 25.0802C165.179 25.3463 165.485 25.5527 165.826 25.6842C166.167 25.8157 166.533 25.8689 166.897 25.8398C167.083 25.8592 167.27 25.8592 167.456 25.8398V27.921C167.183 27.9414 166.909 27.9414 166.636 27.921C166.014 27.9889 165.385 27.918 164.793 27.7132C164.202 27.5085 163.663 27.1751 163.216 26.7371C162.769 26.2991 162.425 25.7674 162.208 25.1803C161.992 24.5933 161.909 23.9655 161.964 23.3424L161.938 17.463Z" fill="white"/>
<path d="M175.11 15.2778C178.545 15.2778 180.38 17.8792 180.38 21.014C180.38 21.3392 180.315 21.9896 180.315 21.9896H171.374C171.376 22.5366 171.487 23.0777 171.701 23.5811C171.915 24.0845 172.228 24.5399 172.621 24.9206C173.014 25.3012 173.479 25.5994 173.989 25.7975C174.499 25.9956 175.044 26.0896 175.591 26.0739C176.916 26.0345 178.184 25.5276 179.17 24.6431L180.185 26.3211C178.883 27.466 177.208 28.0992 175.474 28.1031C174.619 28.139 173.765 27.9989 172.966 27.6914C172.167 27.3838 171.44 26.9155 170.83 26.3154C170.22 25.7153 169.74 24.9962 169.419 24.2029C169.099 23.4095 168.945 22.5588 168.967 21.7034C168.913 20.8687 169.032 20.0318 169.319 19.2458C169.605 18.4598 170.052 17.742 170.631 17.1378C171.21 16.5336 171.908 16.0562 172.681 15.736C173.454 15.4158 174.286 15.2598 175.123 15.2778M177.973 20.2726C178.003 19.8757 177.951 19.4768 177.821 19.1007C177.69 18.7246 177.484 18.3794 177.214 18.0866C176.944 17.7937 176.617 17.5595 176.253 17.3985C175.888 17.2376 175.495 17.1532 175.096 17.1508C174.213 17.1225 173.351 17.4281 172.683 18.0067C172.015 18.5853 171.589 19.3944 171.492 20.2726H177.973Z" fill="white"/>
<path d="M183.308 24.3832C183.771 24.9214 184.338 25.3593 184.976 25.6703C185.614 25.9812 186.309 26.1585 187.018 26.1913C188.15 26.1913 189.139 25.684 189.139 24.6174C189.139 22.4191 182.463 22.6662 182.463 18.725C182.463 16.3706 184.519 15.291 187.018 15.291C188.488 15.291 191.026 15.7983 191.026 17.6584V18.816H188.931V18.2177C188.931 17.4893 187.837 17.1771 187.083 17.1771C185.703 17.1771 184.805 17.6584 184.805 18.6209C184.805 20.9493 191.494 20.442 191.494 24.5263C191.494 26.7116 189.555 28.1164 186.992 28.1164C186.067 28.1365 185.15 27.9535 184.305 27.5804C183.459 27.2073 182.706 26.6532 182.098 25.9571L183.308 24.3832Z" fill="white"/>
<path d="M61.7167 34.2303C61.7167 34.0222 61.6125 33.9311 61.4303 33.9311H60.8447V33.0986H61.8468C62.4194 33.0986 62.6537 33.3458 62.6537 33.9181V41.4624C62.6492 41.5022 62.654 41.5426 62.6676 41.5802C62.6813 41.6179 62.7034 41.6519 62.7324 41.6796C62.7614 41.7073 62.7964 41.728 62.8346 41.7399C62.8729 41.7519 62.9134 41.7549 62.953 41.7486H66.0764C66.116 41.7549 66.1566 41.7519 66.1948 41.7399C66.2331 41.728 66.2681 41.7073 66.2971 41.6796C66.326 41.6519 66.3482 41.6179 66.3618 41.5802C66.3755 41.5426 66.3803 41.5022 66.3758 41.4624V40.8251H67.2607V41.7616C67.2607 42.3469 67.0135 42.5811 66.4408 42.5811H62.5366C61.9639 42.5811 61.7167 42.3469 61.7167 41.7616V34.2303Z" fill="white"/>
<path d="M71.347 35.622C71.8126 35.6115 72.2757 35.6944 72.7088 35.8658C73.1418 36.0371 73.5362 36.2934 73.8686 36.6195C74.2009 36.9457 74.4646 37.335 74.6439 37.7647C74.8233 38.1943 74.9147 38.6554 74.9129 39.121C74.9423 39.6062 74.872 40.0924 74.7064 40.5495C74.5408 41.0066 74.2834 41.4251 73.95 41.7791C73.6166 42.1331 73.2142 42.4151 72.7677 42.608C72.3212 42.8008 71.8399 42.9002 71.3535 42.9002C70.8671 42.9002 70.3858 42.8008 69.9393 42.608C69.4927 42.4151 69.0904 42.1331 68.757 41.7791C68.4236 41.4251 68.1662 41.0066 68.0006 40.5495C67.835 40.0924 67.7647 39.6062 67.7941 39.121C67.7905 38.6561 67.8803 38.1952 68.0583 37.7656C68.2362 37.336 68.4986 36.9466 68.8299 36.6202C69.1613 36.2939 69.5548 36.0374 69.9872 35.866C70.4195 35.6945 70.8819 35.6115 71.347 35.622ZM71.347 41.8655C71.7012 41.8661 72.0517 41.7944 72.3772 41.6548C72.7027 41.5152 72.9963 41.3106 73.24 41.0537C73.4837 40.7968 73.6723 40.4928 73.7944 40.1605C73.9164 39.8282 73.9693 39.4744 73.9498 39.121C73.9498 38.431 73.6756 37.7693 73.1875 37.2814C72.6993 36.7936 72.0373 36.5195 71.347 36.5195C70.6566 36.5195 69.9946 36.7936 69.5065 37.2814C69.0183 37.7693 68.7441 38.431 68.7441 39.121C68.7246 39.4744 68.7776 39.8282 68.8996 40.1605C69.0217 40.4928 69.2103 40.7968 69.454 41.0537C69.6976 41.3106 69.9912 41.5152 70.3167 41.6548C70.6422 41.7944 70.9928 41.8661 71.347 41.8655Z" fill="white"/>
<path d="M78.9343 35.6216C79.3796 35.5628 79.8322 35.6408 80.232 35.8452C80.6319 36.0497 80.96 36.3709 81.1728 36.7663V36.5191C81.1728 36.0379 81.381 35.7777 81.9276 35.7777H82.8776V36.5712H82.305C82.1228 36.5712 82.0187 36.6622 82.0187 36.8703V42.3595C82.0334 42.7779 81.9569 43.1945 81.7945 43.5804C81.6321 43.9663 81.3877 44.3123 81.0782 44.5944C80.7687 44.8765 80.4015 45.088 80.0021 45.2142C79.6027 45.3404 79.1806 45.3782 78.7651 45.3252C78.0045 45.3215 77.2555 45.1388 76.5787 44.7919L76.9171 44.0244C77.4784 44.325 78.1025 44.4898 78.7391 44.5057C80.0405 44.5057 81.1077 43.8814 81.1077 42.3855V41.8002C81.1077 41.54 81.1077 41.3059 81.1077 41.3059C80.9063 41.6861 80.5984 41.9994 80.2216 42.2073C79.8449 42.4152 79.4156 42.5088 78.9864 42.4765C78.5548 42.4669 78.1299 42.3671 77.7392 42.1837C77.3484 42.0003 77.0003 41.7372 76.7172 41.4114C76.4342 41.0856 76.2223 40.7043 76.0954 40.2919C75.9685 39.8794 75.9292 39.4451 75.9801 39.0166C75.9801 37.0004 77.0993 35.6216 78.9083 35.6216M81.1337 39.0166C81.1337 37.0524 80.1967 36.4151 78.9994 36.4151C77.8021 36.4151 76.9171 37.3646 76.9171 39.0166C76.9171 40.6685 77.789 41.618 79.1165 41.618C80.1967 41.618 81.1337 40.9677 81.1337 39.0166Z" fill="white"/>
<path d="M84.4524 36.8578C84.4569 36.818 84.4521 36.7776 84.4385 36.74C84.4248 36.7023 84.4026 36.6683 84.3736 36.6406C84.3447 36.6129 84.3097 36.5922 84.2714 36.5803C84.2331 36.5683 84.1927 36.5654 84.1531 36.5716H83.6064V35.7782H84.5565C85.1421 35.7782 85.3764 36.0253 85.3764 36.5976V41.4624C85.3764 41.6575 85.4805 41.7486 85.6757 41.7486H86.2093V42.542H85.2592C84.6866 42.542 84.4394 42.3079 84.4394 41.7226L84.4524 36.8578ZM85.3373 33.0986H86.3524L85.1942 34.6986H84.4003L85.3373 33.0986Z" fill="white"/>
<path d="M87.5105 40.8631C87.762 41.1753 88.0786 41.4291 88.4382 41.6065C88.7978 41.784 89.1918 41.881 89.5927 41.8907C90.3345 41.8907 91.0113 41.5265 91.0113 40.8111C91.0113 39.3412 87.2242 39.6144 87.2242 37.4421C87.2242 36.2194 88.2653 35.6211 89.6318 35.6211C90.3085 35.6211 91.6751 35.8812 91.6751 36.8438V37.4161H90.8161V37.0909C90.8161 36.5966 90.1003 36.4145 89.6579 36.4145C88.7208 36.4145 88.1482 36.7267 88.1482 37.3901C88.1482 38.899 91.9354 38.5478 91.9354 40.785C91.9354 41.9167 90.9072 42.6711 89.5668 42.6711C89.0719 42.6905 88.5792 42.5949 88.1276 42.3917C87.6759 42.1886 87.2776 41.8835 86.9639 41.5005L87.5105 40.8631Z" fill="white"/>
<path d="M93.7312 36.5455H92.8462V35.778H93.7442V33.918H94.6422V35.778H96.3341V36.5455H94.6422V39.9664C94.6422 41.5533 95.6443 41.7485 96.1519 41.7485C96.2557 41.7587 96.3603 41.7587 96.4642 41.7485V42.5679C96.3342 42.5769 96.2038 42.5769 96.0738 42.5679C95.7456 42.595 95.4155 42.5476 95.1082 42.4293C94.8009 42.3109 94.5242 42.1248 94.299 41.8847C94.0738 41.6445 93.9057 41.3566 93.8074 41.0425C93.7091 40.7284 93.6831 40.3961 93.7312 40.0705V36.5455Z" fill="white"/>
<path d="M98.2085 36.8578C98.2106 36.8185 98.2042 36.7793 98.1897 36.7428C98.1752 36.7062 98.153 36.6733 98.1246 36.6461C98.0961 36.6189 98.0622 36.5982 98.025 36.5854C97.9879 36.5725 97.9483 36.5678 97.9092 36.5716H97.3496V35.7782H98.2996C98.8722 35.7782 99.1195 36.0253 99.1195 36.5976V41.4624C99.1154 41.501 99.12 41.54 99.1329 41.5766C99.1459 41.6132 99.1669 41.6464 99.1944 41.6738C99.2218 41.7013 99.2551 41.7222 99.2917 41.7352C99.3283 41.7481 99.3673 41.7527 99.4059 41.7486H99.9785V42.542H99.0284C98.4428 42.542 98.2085 42.3079 98.2085 41.7226V36.8578ZM98.2085 33.0986H99.0936V34.2563H98.2085V33.0986Z" fill="white"/>
<path d="M104.429 35.6217C105.184 35.6217 106.824 35.9339 106.824 37.0525V37.6509H105.965V37.2607C105.965 36.7013 104.989 36.4412 104.429 36.4412C103.711 36.4412 103.023 36.7262 102.515 37.2336C102.007 37.741 101.722 38.4292 101.722 39.1467C101.722 39.8643 102.007 40.5525 102.515 41.0599C103.023 41.5672 103.711 41.8523 104.429 41.8523C104.838 41.8495 105.242 41.7626 105.616 41.597C105.99 41.4314 106.326 41.1906 106.603 40.8897L107.019 41.5791C106.682 41.9287 106.278 42.206 105.83 42.3939C105.383 42.5817 104.902 42.6763 104.416 42.6718C103.949 42.6899 103.484 42.6116 103.048 42.4418C102.613 42.2719 102.218 42.014 101.887 41.6844C101.555 41.3548 101.296 40.9604 101.124 40.526C100.953 40.0916 100.873 39.6265 100.889 39.1598C100.877 38.6906 100.96 38.2238 101.134 37.788C101.309 37.3522 101.57 36.9565 101.903 36.6252C102.235 36.294 102.632 36.0341 103.069 35.8616C103.505 35.689 103.973 35.6074 104.442 35.6217" fill="white"/>
<path d="M112.081 38.3657H112.458V38.2876C112.458 36.8828 111.938 36.3755 110.714 36.3755C110.376 36.3755 109.413 36.4796 109.413 36.9739V37.4031H108.541V36.7527C108.541 35.8162 110.142 35.6211 110.74 35.6211C112.862 35.6211 113.343 36.7527 113.343 38.2226V41.4614C113.339 41.5 113.344 41.539 113.357 41.5756C113.369 41.6122 113.39 41.6454 113.418 41.6729C113.445 41.7003 113.479 41.7213 113.515 41.7342C113.552 41.7471 113.591 41.7517 113.629 41.7476H114.189V42.5411H113.265C112.692 42.5411 112.471 42.2939 112.471 41.7346C112.471 41.4484 112.471 41.2403 112.471 41.2403C112.286 41.6793 111.974 42.0534 111.575 42.315C111.177 42.5767 110.71 42.7142 110.233 42.7102C109.948 42.7388 109.661 42.7089 109.388 42.6222C109.115 42.5356 108.863 42.3941 108.648 42.2064C108.432 42.0187 108.257 41.7889 108.133 41.531C108.01 41.2731 107.94 40.9927 107.929 40.707C107.929 38.4697 110.896 38.3917 112.068 38.3917M110.376 41.9297C110.978 41.8577 111.529 41.5566 111.914 41.0891C112.299 40.6215 112.49 40.0234 112.445 39.4193V39.1071H112.055C110.988 39.1071 108.879 39.1071 108.879 40.655C108.877 40.8435 108.916 41.0303 108.993 41.2023C109.071 41.3743 109.184 41.5275 109.327 41.6513C109.469 41.775 109.637 41.8663 109.818 41.9189C109.999 41.9714 110.189 41.984 110.376 41.9557" fill="white"/>
<path d="M118.771 41.6835H119.656V33.9181H118.771V33.0986H121.465V33.9181H120.567V41.6835H121.465V42.516H118.771V41.6835Z" fill="white"/>
<path d="M123.248 36.8569C123.25 36.8177 123.243 36.7784 123.229 36.7419C123.214 36.7054 123.192 36.6724 123.164 36.6452C123.135 36.6181 123.101 36.5974 123.064 36.5845C123.027 36.5717 122.987 36.567 122.948 36.5708H122.389V35.7773H123.326C123.885 35.7773 124.146 36.0244 124.146 36.5317V36.8439C124.154 37.0042 124.154 37.1649 124.146 37.3252C124.371 36.8062 124.747 36.3666 125.225 36.063C125.703 35.7593 126.261 35.6054 126.827 35.6212C128.492 35.6212 129.091 36.5708 129.091 38.2227V41.4616C129.087 41.5001 129.092 41.5392 129.104 41.5757C129.117 41.6123 129.138 41.6455 129.166 41.673C129.193 41.7004 129.226 41.7214 129.263 41.7343C129.3 41.7472 129.339 41.7518 129.377 41.7477H129.95V42.5412H128.987C128.414 42.5412 128.18 42.307 128.18 41.7217V38.4698C128.18 37.4162 128.011 36.4797 126.709 36.4797C126.152 36.4925 125.613 36.6839 125.173 37.0258C124.732 37.3678 124.413 37.842 124.263 38.3788C124.187 38.6763 124.152 38.9825 124.159 39.2893V42.5152H123.248V36.8569Z" fill="white"/>
<path d="M131.473 36.5455H130.588V35.778H131.486V33.918H132.384V35.778H134.076V36.5455H132.384V39.9664C132.384 41.5533 133.386 41.7485 133.894 41.7485C133.997 41.7587 134.102 41.7587 134.206 41.7485V42.5679C134.076 42.5777 133.945 42.5777 133.815 42.5679C133.487 42.595 133.157 42.5476 132.85 42.4293C132.543 42.3109 132.266 42.1248 132.041 41.8847C131.815 41.6445 131.647 41.3566 131.549 41.0425C131.451 40.7284 131.425 40.3961 131.473 40.0705V36.5455Z" fill="white"/>
<path d="M138.448 35.6213C138.845 35.6172 139.238 35.6971 139.602 35.8558C139.966 36.0145 140.292 36.2484 140.558 36.5421C140.825 36.8357 141.027 37.1825 141.15 37.5597C141.273 37.9368 141.315 38.3357 141.272 38.7301C141.272 38.8861 141.272 39.1853 141.272 39.1853H136.067C136.056 39.5335 136.116 39.8801 136.242 40.2048C136.368 40.5295 136.558 40.8256 136.801 41.0755C137.044 41.3254 137.334 41.524 137.655 41.6596C137.976 41.7952 138.321 41.865 138.669 41.8648C139.427 41.8517 140.151 41.5545 140.7 41.0324L141.142 41.7088C140.445 42.3169 139.555 42.658 138.63 42.6713C138.164 42.6875 137.699 42.6079 137.265 42.4374C136.83 42.2668 136.436 42.0089 136.105 41.6797C135.774 41.3504 135.515 40.9569 135.343 40.5233C135.17 40.0898 135.089 39.6255 135.104 39.1593C135.071 38.7039 135.134 38.2468 135.287 37.8168C135.44 37.3867 135.681 36.993 135.994 36.6606C136.307 36.3282 136.685 36.0642 137.105 35.8853C137.526 35.7064 137.978 35.6165 138.435 35.6213M140.322 38.4569C140.346 38.193 140.314 37.9272 140.229 37.6762C140.144 37.4252 140.008 37.1946 139.83 36.9989C139.651 36.8033 139.434 36.6468 139.191 36.5396C138.949 36.4323 138.687 36.3765 138.422 36.3757C137.845 36.3724 137.287 36.5835 136.857 36.9681C136.426 37.3526 136.154 37.8832 136.093 38.4569H140.322Z" fill="white"/>
<path d="M145.411 35.6216C145.856 35.5628 146.309 35.6408 146.709 35.8452C147.109 36.0497 147.437 36.3709 147.65 36.7663V36.5191C147.65 36.0379 147.871 35.7777 148.417 35.7777H149.354V36.5712H148.808C148.767 36.5644 148.725 36.5675 148.686 36.5801C148.646 36.5928 148.611 36.6146 148.581 36.6439C148.552 36.6731 148.53 36.7089 148.517 36.7483C148.505 36.7877 148.502 36.8295 148.508 36.8703V42.3595C148.528 42.7774 148.457 43.1946 148.299 43.5822C148.142 43.9698 147.902 44.3186 147.596 44.6043C147.29 44.8901 146.926 45.1061 146.529 45.2373C146.131 45.3685 145.71 45.4118 145.294 45.3642C144.529 45.3621 143.775 45.1794 143.095 44.8309L143.472 44.0635C144.033 44.364 144.657 44.5289 145.294 44.5447C146.595 44.5447 147.65 43.9204 147.65 42.4245V41.8392C147.65 41.579 147.65 41.3449 147.65 41.3449C147.45 41.7262 147.142 42.0404 146.765 42.2486C146.388 42.4567 145.958 42.5495 145.528 42.5156C145.097 42.5061 144.673 42.4064 144.283 42.2228C143.892 42.0392 143.545 41.7759 143.263 41.4499C142.981 41.1238 142.77 40.7423 142.645 40.3299C142.52 39.9175 142.482 39.4834 142.535 39.0556C142.535 37.0394 143.641 35.6606 145.45 35.6606M147.676 39.0556C147.676 37.0915 146.739 36.4541 145.541 36.4541C144.344 36.4541 143.472 37.4036 143.472 39.0556C143.472 40.7075 144.344 41.6571 145.671 41.6571C146.739 41.6571 147.676 41.0067 147.676 39.0556Z" fill="white"/>
<path d="M150.851 36.8571C150.855 36.8185 150.85 36.7795 150.838 36.7429C150.825 36.7063 150.804 36.6731 150.776 36.6457C150.749 36.6182 150.715 36.5973 150.679 36.5844C150.642 36.5714 150.603 36.5668 150.565 36.5709H149.979V35.7775H150.929C151.489 35.7775 151.736 36.0116 151.736 36.5449V37.0002C151.736 37.2733 151.736 37.5075 151.736 37.5075C151.848 37.0172 152.117 36.5768 152.502 36.2529C152.888 35.929 153.368 35.7393 153.87 35.7125C153.991 35.7013 154.113 35.7013 154.235 35.7125V36.61C154.122 36.6017 154.009 36.6017 153.896 36.61C153.424 36.6448 152.977 36.8346 152.624 37.1498C152.271 37.465 152.032 37.888 151.944 38.353C151.811 38.7735 151.745 39.2125 151.749 39.6537V42.4893H150.838L150.851 36.8571Z" fill="white"/>
<path d="M158.764 38.3657H159.089V38.2876C159.089 36.8828 158.581 36.3755 157.345 36.3755C157.007 36.3755 156.044 36.4796 156.044 36.9739V37.4031H155.185V36.7527C155.185 35.8162 156.798 35.6211 157.384 35.6211C159.518 35.6211 159.987 36.7527 159.987 38.2226V41.4614C159.987 41.6565 160.091 41.7476 160.286 41.7476H160.846V42.5411H159.922C159.336 42.5411 159.115 42.2939 159.115 41.7346C159.115 41.4484 159.115 41.2403 159.115 41.2403C158.932 41.6814 158.621 42.0574 158.222 42.3195C157.823 42.5816 157.354 42.7177 156.876 42.7102C156.593 42.7369 156.307 42.7056 156.036 42.6181C155.765 42.5306 155.514 42.3887 155.3 42.2013C155.085 42.0138 154.912 41.7846 154.789 41.5276C154.666 41.2707 154.597 40.9915 154.586 40.707C154.586 38.4697 157.54 38.3917 158.712 38.3917M157.02 41.9297C157.621 41.8577 158.172 41.5566 158.558 41.0891C158.943 40.6215 159.133 40.0234 159.089 39.4193V39.1071H158.698C157.644 39.1071 155.523 39.1071 155.523 40.655C155.521 40.8435 155.56 41.0303 155.637 41.2023C155.714 41.3743 155.828 41.5275 155.97 41.6513C156.113 41.775 156.28 41.8663 156.461 41.9189C156.643 41.9714 156.833 41.984 157.02 41.9557" fill="white"/>
<path d="M164.776 35.6221C165.229 35.6076 165.676 35.7223 166.065 35.9526C166.455 36.183 166.771 36.5195 166.976 36.9228C166.976 36.9228 166.976 36.6887 166.976 36.4025V34.1783C166.98 34.1397 166.975 34.1007 166.962 34.0641C166.949 34.0275 166.928 33.9943 166.901 33.9668C166.873 33.9394 166.84 33.9184 166.804 33.9055C166.767 33.8926 166.728 33.888 166.689 33.8921H166.117V33.0986H167.067C167.652 33.0986 167.887 33.3458 167.887 33.9181V41.4624C167.882 41.5022 167.887 41.5426 167.9 41.5802C167.914 41.6179 167.936 41.6519 167.965 41.6796C167.994 41.7073 168.029 41.728 168.068 41.7399C168.106 41.7519 168.146 41.7549 168.186 41.7486H168.745V42.542H167.808C167.249 42.542 167.002 42.2949 167.002 41.7876C166.988 41.6449 166.988 41.5011 167.002 41.3584C166.783 41.7762 166.448 42.1217 166.037 42.3526C165.625 42.5835 165.156 42.69 164.685 42.6591C162.876 42.6591 161.757 41.2023 161.757 39.1211C161.757 37.0399 163.058 35.5961 164.776 35.5961M167.002 39.1211C167.002 37.8203 166.312 36.4155 164.867 36.4155C163.67 36.4155 162.694 37.4171 162.694 39.1211C162.694 40.8251 163.566 41.8396 164.815 41.8396C166.065 41.8396 167.002 41.0332 167.002 39.1211Z" fill="white"/>
<path d="M173.73 38.3657H174.107V38.2876C174.107 36.8828 173.6 36.3755 172.363 36.3755C172.038 36.3755 171.062 36.4796 171.062 36.9739V37.4031H170.19V36.7527C170.19 35.8162 171.791 35.6211 172.376 35.6211C174.511 35.6211 174.979 36.7527 174.979 38.2226V41.4614C174.979 41.6565 175.083 41.7476 175.278 41.7476H175.838V42.5411H174.914C174.341 42.5411 174.107 42.2939 174.107 41.7346C174.107 41.4484 174.107 41.2403 174.107 41.2403C173.924 41.6814 173.613 42.0574 173.214 42.3195C172.815 42.5816 172.346 42.7177 171.869 42.7102C171.585 42.7369 171.299 42.7056 171.028 42.6181C170.757 42.5306 170.506 42.3887 170.292 42.2013C170.078 42.0138 169.904 41.7846 169.781 41.5276C169.658 41.2707 169.589 40.9915 169.578 40.707C169.578 38.4697 172.545 38.3917 173.704 38.3917M172.103 41.9037C172.704 41.8317 173.253 41.5301 173.637 41.0621C174.02 40.5942 174.207 39.9961 174.159 39.3933V39.0811H173.769C172.715 39.0811 170.593 39.0811 170.593 40.629C170.591 40.8188 170.63 41.0069 170.708 41.18C170.786 41.3531 170.901 41.507 171.045 41.6309C171.189 41.7549 171.358 41.8459 171.541 41.8975C171.724 41.9491 171.915 41.9601 172.103 41.9297" fill="white"/>
<path d="M32.33 1.28218C31.0285 1.28218 31.6532 1.36023 32.5902 1.80248C34.3992 2.63496 35.9479 3.31135 33.7355 6.29005C31.5231 9.26876 22.9467 15.5123 18.4568 19.4406C13.9669 23.3688 5.79393 32.2009 6.41861 38.9518C7.0433 45.7026 14.136 47.8749 11.9757 45.1303C8.59198 39.303 14.4354 32.1228 18.1705 28.0775C23.1419 22.6664 29.2716 18.439 34.9849 13.8474C41.2187 8.8265 40.9974 6.31607 38.9672 4.16984C37.1655 2.45599 34.8238 1.42139 32.3429 1.24316L32.33 1.28218Z" fill="white"/>
<mask id="mask0_4_1149" style="mask-type:luminance" maskUnits="userSpaceOnUse" x="6" y="1" width="35" height="46">
<path d="M32.33 1.28218C31.0286 1.28218 31.6532 1.36023 32.5903 1.80248C34.3992 2.63496 35.9479 3.31135 33.7355 6.29005C31.5231 9.26876 22.9597 15.5123 18.4568 19.4406C13.9539 23.3688 5.79398 32.2009 6.41866 38.9518C7.04335 45.7026 14.1491 47.8749 11.9757 45.1433C8.59203 39.316 14.4354 32.1359 18.1705 28.0775C23.1419 22.6534 29.2717 18.452 34.9849 13.8474C41.2187 8.8265 40.9975 6.31607 38.9673 4.16984C37.1656 2.45599 34.8238 1.42139 32.343 1.24316L32.33 1.28218Z" fill="white"/>
</mask>
<g mask="url(#mask0_4_1149)">
<path d="M18.5037 -15.7265L-16.5818 31.1562L28.4951 64.8904L63.5806 18.0077L18.5037 -15.7265Z" fill="white"/>
</g>
<mask id="mask1_4_1149" style="mask-type:luminance" maskUnits="userSpaceOnUse" x="0" y="0" width="32" height="53">
<path d="M27.3979 0.631836C28.7774 1.77649 18.2879 7.01849 14.9693 9.48991C11.6507 11.9613 -0.986184 19.7008 1.07006 32.357C3.12631 45.0133 18.0797 50.9837 23.9751 52.2194C29.8706 53.4551 26.6691 51.8682 25.7711 51.621C12.5616 48.07 6.6662 41.2151 5.88534 40.4997C5.10449 39.7843 1.2783 35.2967 4.49281 27.6223C8.29297 18.0228 27.7232 5.93888 29.9617 4.20888C32.2001 2.47889 31.7967 1.41228 30.7816 0.983033C29.8714 0.730297 28.9274 0.620591 27.9835 0.657846H27.3979" fill="white"/>
</mask>
<g mask="url(#mask1_4_1149)">
<path d="M11.4622 -15.4513L-26.5894 33.6045L19.7277 69.5316L57.7792 20.4759L11.4622 -15.4513Z" fill="white"/>
</g>
<mask id="mask2_4_1149" style="mask-type:luminance" maskUnits="userSpaceOnUse" x="0" y="0" width="33" height="53">
<path d="M24.7558 0.305979C13.9801 0.943344 7.94148 6.25038 5.05232 10.855C-0.153373 19.1148 -1.71508 24.1747 2.16316 31.9921C6.0414 39.8096 20.8776 47.8352 25.0422 49.162C29.2067 50.4887 29.5841 52.5569 29.5841 52.5569C29.5841 52.5569 30.6253 52.4398 31.8876 52.1927C34.7898 51.3602 28.582 47.7962 24.8079 45.8191C21.0338 43.8419 11.0258 38.6649 4.57076 29.1955C-1.8843 19.7261 3.77692 15.3686 7.52501 11.4664C12.3418 6.99058 18.1338 3.69534 24.4435 1.84086C25.9922 1.42462 27.2936 0.292969 25.1723 0.292969H24.7168" fill="white"/>
</mask>
<g mask="url(#mask2_4_1149)">
<path d="M4.75384 -13.803L-22.001 43.1055L28.1549 66.6857L54.9097 9.77723L4.75384 -13.803Z" fill="white"/>
</g>
<mask id="mask3_4_1149" style="mask-type:luminance" maskUnits="userSpaceOnUse" x="3" y="2" width="38" height="50">
<path d="M3.53023 15.8633C3.1398 25.853 21.5419 38.8605 30.4046 44.2716C39.2673 49.6827 35.2719 51.3997 34.1657 51.894C36.7686 51.4907 41.1544 49.8778 40.2173 46.691C39.3714 43.8033 35.5843 41.2799 33.3718 39.4978C30.4567 37.1565 27.3853 35.0103 24.2619 32.8901C17.8198 28.4545 11.8984 23.6157 8.11122 16.6568C3.5172 8.21493 14.6183 2.9209 14.6183 2.9209C14.6183 2.9209 3.9597 6.82313 3.45215 15.9283" fill="white"/>
</mask>
<g mask="url(#mask3_4_1149)">
<path d="M33.4794 -12.4309L-16.5371 12.7139L10.8027 67.0966L60.8192 41.9519L33.4794 -12.4309Z" fill="white"/>
</g>
<path d="M280.718 23.8113C280.724 22.895 280.5 21.9918 280.066 21.1849C279.631 20.378 279.001 19.6932 278.232 19.1936C275.972 17.9475 273.404 17.37 270.827 17.5287C268.498 17.5287 265.921 17.6067 264.203 17.6327H264.021L260.116 34.8286H260.39C262.108 34.8286 263.865 34.9326 266.389 34.9326C271.244 34.9326 274.81 33.6319 277.191 31.6157C278.295 30.6964 279.183 29.5446 279.79 28.2427C280.398 26.9408 280.71 25.5209 280.705 24.0844V23.8113M266.832 32.162C266.272 32.162 265.4 32.162 264.711 32.071L267.404 20.2862C268.159 20.2862 269.239 20.2862 270.372 20.2862C272.053 20.1451 273.736 20.5316 275.187 21.3919C275.611 21.7153 275.95 22.1359 276.177 22.6182C276.403 23.1004 276.51 23.6301 276.488 24.1625V24.3576C276.488 27.8696 273.886 32.162 266.806 32.162" fill="white"/>
<path d="M287.563 20.312H295.541L295.58 20.1429L296.179 17.6064H284.166L280.262 34.8283H292.288L292.886 32.0577H284.869L285.949 27.297H293.563L294.214 24.6305H286.561L287.563 20.312Z" fill="white"/>
<path d="M381.657 21.5997V21.4826C381.655 20.8687 381.484 20.2672 381.162 19.7441C380.841 19.221 380.381 18.7964 379.835 18.5169C378.184 17.749 376.368 17.4048 374.551 17.5153C372.26 17.5153 370.438 17.5153 368.811 17.6064H368.642L364.738 34.8152H368.746L370.347 27.7002L375.475 34.8283H380.342L375.644 28.7278C375.254 28.2335 374.889 27.7002 374.499 27.2189C376.288 27.035 378.008 26.4335 379.522 25.4629C380.188 25.0505 380.739 24.4766 381.124 23.7943C381.508 23.112 381.714 22.3437 381.722 21.5606M376.099 24.2402C374.951 24.849 373.663 25.1451 372.364 25.0987C371.688 25.0987 371.31 25.0987 371.063 25.0987L372.156 20.2079C372.664 20.2079 373.327 20.2079 374.121 20.2079C375.044 20.1468 375.968 20.3074 376.815 20.6761C377.056 20.7955 377.258 20.9815 377.396 21.2121C377.535 21.4427 377.604 21.7081 377.596 21.9769V21.9509C377.586 22.426 377.446 22.8893 377.192 23.2906C376.937 23.6919 376.577 24.0158 376.152 24.2272" fill="white"/>
<path d="M317.222 31.3165L316.91 31.4075C315.336 31.9076 313.694 32.1578 312.043 32.1489C310.626 32.2721 309.21 31.9147 308.021 31.1344C307.648 30.8144 307.353 30.4141 307.156 29.9635C306.96 29.513 306.869 29.0238 306.889 28.5329V28.2987C306.889 24.5916 309.063 20.3252 315.062 20.3252C316.511 20.3327 317.954 20.5206 319.357 20.8845H319.552L320.814 18.0489L320.346 17.9448C318.732 17.609 317.088 17.4434 315.44 17.4505C311.897 17.2778 308.431 18.5122 305.796 20.8845C304.754 21.8986 303.927 23.1125 303.366 24.4536C302.805 25.7947 302.52 27.2353 302.529 28.689C302.529 28.793 302.529 28.8971 302.529 28.9881C302.514 29.7661 302.666 30.5384 302.976 31.2522C303.286 31.966 303.746 32.6047 304.325 33.1245C305.627 34.2692 307.761 34.9976 311.08 34.9976C312.698 35.0022 314.312 34.8365 315.895 34.5033L317.222 31.3165Z" fill="white"/>
<path d="M333.412 27.5051C332.736 28.5327 332.267 29.2871 331.76 30.2237C331.681 29.3022 331.551 28.3858 331.369 27.4791L329.365 17.6064H324.823L317.561 34.8283H321.752L325.2 26.0093C325.63 24.8256 326.033 23.798 326.398 22.7444C326.493 23.7056 326.641 24.6608 326.84 25.606L328.74 34.8283H332.645L339.048 24.9817C339.633 24.1102 340.115 23.3037 340.505 22.5753C340.427 23.4598 340.375 24.4874 340.323 25.7491L339.985 34.8543H344.24V34.6332L344.631 17.6325H339.946L333.412 27.5051Z" fill="white"/>
<path d="M298.964 17.6064L295.073 34.8283H299.068L299.12 34.6463L302.972 17.6064H298.964Z" fill="white"/>
<path d="M355.693 17.6064L343.707 34.8283H347.988L350.513 31.1212H359.089L359.909 34.8283H364.191L359.922 17.6064H355.693ZM352.218 28.5197L355.576 23.6809C356.049 23.0041 356.484 22.3005 356.877 21.5737C356.968 22.2313 357.099 22.8828 357.267 23.5248L358.569 28.5197H352.218Z" fill="white"/>
<path d="M223.494 36.4803H239.111C241.831 36.4803 244.44 35.4004 246.363 33.4782C248.286 31.556 249.366 28.9489 249.366 26.2305C249.366 23.512 248.286 20.9049 246.363 18.9827C244.44 17.0605 241.831 15.9806 239.111 15.9806H223.494V11.3369H239.111C243.063 11.3369 246.853 12.9061 249.648 15.6991C252.443 18.4922 254.013 22.2804 254.013 26.2305C254.013 30.1805 252.443 33.9687 249.648 36.7618C246.853 39.5548 243.063 41.124 239.111 41.124H223.494V36.4803Z" fill="white"/>
<path d="M239.085 17.6064H223.507V22.2501H239.085V17.6064Z" fill="white"/>
<path d="M239.085 30.1846H223.507V34.8282H239.085V30.1846Z" fill="white"/>
<path d="M239.085 23.8896H223.507V28.5333H239.085V23.8896Z" fill="white"/>
</svg>
